<?xml version="1.0" encoding="utf-8"?>
<!-- Generator: Adobe Illustrator 27.1.1, SVG Export Plug-In . SVG Version: 6.00 Build 0)  -->
<svg version="1.1" id="Capa_1" xmlns="http://www.w3.org/2000/svg" xmlns:xlink="http://www.w3.org/1999/xlink" x="0px" y="0px"
	 viewBox="0 0 512 512" style="enable-background:new 0 0 512 512;" xml:space="preserve">
<g>
	<g>
		<g>
			<path style="fill:#FFFFFF;" d="M469.3,106.7H362.7V85.3c0-23.5-19.1-42.7-42.7-42.7H192c-23.5,0-42.7,19.1-42.7,42.7v21.3H42.7
				C19.1,106.7,0,125.8,0,149.3v64C0,236.9,19.1,256,42.7,256h170.7v-10.7c0-5.9,4.8-10.7,10.7-10.7h64c5.9,0,10.7,4.8,10.7,10.7
				V256h170.7c23.5,0,42.7-19.1,42.7-42.7v-64C512,125.8,492.9,106.7,469.3,106.7z M320,106.7H192V85.3h128V106.7z"/>
			<path style="fill:#FFFFFF;" d="M506.1,267.5c-3.6-1.8-8-1.4-11.2,1.1c-7.6,5.7-16.4,8.8-25.6,8.8H298.7v32
				c0,5.9-4.8,10.7-10.7,10.7h-64c-5.9,0-10.7-4.8-10.7-10.7v-32H42.7c-9.1,0-18-3-25.6-8.8c-3.2-2.5-7.6-2.9-11.2-1.1
				C2.3,269.3,0,273,0,277.1v149.6c0,23.5,19.1,42.7,42.7,42.7h426.7c23.5,0,42.7-19.1,42.7-42.7V277.1
				C512,273,509.7,269.3,506.1,267.5z"/>
		</g>
	</g>
</g>
</svg>
