<?xml version="1.0" encoding="utf-8"?>
<!-- Generator: Adobe Illustrator 27.1.1, SVG Export Plug-In . SVG Version: 6.00 Build 0)  -->
<svg version="1.1" id="Capa_1" xmlns="http://www.w3.org/2000/svg" xmlns:xlink="http://www.w3.org/1999/xlink" x="0px" y="0px"
	 viewBox="0 0 512 512" style="enable-background:new 0 0 512 512;" xml:space="preserve">
<g>
	<g>
		<path style="fill:#FFFFFF;" d="M149.8,200.1c-12.9,0-25.5,1.6-37.5,4.7c2.8,9.3,6.5,18.4,11.2,27.2c15.1,28.5,38.4,51,66.9,64.8
			c8.4-27.2,23.1-51.6,42.4-71.6C209,209.4,180.5,200.1,149.8,200.1z"/>
	</g>
</g>
<g>
	<g>
		<path style="fill:#FFFFFF;" d="M362.2,200.1c-30.6,0-59.2,9.3-82.9,25.1c19.3,20,34,44.4,42.4,71.6c1.4-0.7,2.9-1.4,4.3-2.2
			c35.4-18.7,61.4-50,73.2-88.3c0.2-0.5,0.3-1,0.5-1.5C387.6,201.8,375.1,200.1,362.2,200.1z"/>
	</g>
</g>
<g>
	<g>
		<path style="fill:#FFFFFF;" d="M388.5,92.2c-18.7-35.4-50-61.4-88.3-73.2c-14.6-4.5-29.5-6.8-44.4-6.8c-24,0-47.9,5.9-69.8,17.4
			c-35.4,18.7-61.4,50-73.2,88.3c-5.8,18.9-7.9,38.3-6.2,57.5c13.8-3.4,28.3-5.2,43.1-5.2c39.7,0,76.4,12.9,106.2,34.8
			c29.8-21.9,66.5-34.8,106.2-34.8c14.9,0,29.3,1.8,43.1,5.2C407.9,146.8,402.2,118.1,388.5,92.2z"/>
	</g>
</g>
<g>
	<g>
		<path style="fill:#FFFFFF;" d="M256,244.3c-17.2,17.3-30.3,38.8-37.4,62.9c24.8,6.4,50.5,6.4,74.9,0
			C286.3,283.2,273.2,261.7,256,244.3z"/>
	</g>
</g>
<g>
	<g>
		<path style="fill:#FFFFFF;" d="M427.8,215.3c-14.2,45.9-45.4,83.5-87.8,105.9c-3.9,2-7.8,3.9-11.8,5.7c1,7.6,1.5,15.3,1.5,23.1
			c0,48.4-19.2,92.4-50.4,124.7c23.8,15.9,52.3,25.1,82.9,25.1c82.6,0,149.8-67.2,149.8-149.8C512,290.8,477.6,239.6,427.8,215.3z"
			/>
	</g>
</g>
<g>
	<g>
		<path style="fill:#FFFFFF;" d="M182.4,349.9c0-7.8,0.5-15.5,1.5-23.1c-37.2-16.2-67.6-44.3-86.9-80.8c-5.3-10-9.5-20.3-12.8-30.8
			C34.4,239.7,0,290.9,0,349.9c0,82.6,67.2,149.8,149.8,149.8c30.6,0,59.2-9.3,82.9-25.1C201.6,442.3,182.4,398.3,182.4,349.9z"/>
	</g>
</g>
<g>
	<g>
		<path style="fill:#FFFFFF;" d="M299.1,336.8c-14,3.5-28.4,5.2-42.8,5.2c-14.5,0-29-1.8-43.3-5.3c-0.4,4.4-0.6,8.8-0.6,13.2
			c0,41.2,16.7,78.5,43.6,105.6c27-27.1,43.6-64.4,43.6-105.6C299.6,345.5,299.4,341.1,299.1,336.8z"/>
	</g>
</g>
</svg>
