<?xml version="1.0" encoding="utf-8"?>
<!-- Generator: Adobe Illustrator 27.1.1, SVG Export Plug-In . SVG Version: 6.00 Build 0)  -->
<svg version="1.1" id="Layer_1" xmlns="http://www.w3.org/2000/svg" xmlns:xlink="http://www.w3.org/1999/xlink" x="0px" y="0px"
	 viewBox="0 0 512 512" style="enable-background:new 0 0 512 512;" xml:space="preserve">
<g id="e">
	<path style="fill:#FFFFFF;" d="M474.5,212.5C473.1,139,462.9,84.8,463,84.7c-4.3-8.3-11.7-15.3-20.9-18.8
		c-60-23.3-119-45.5-176.5-64.4c-5.9-1.9-12.1-1.9-17.9,0C190.2,20.4,131.2,42.5,71.2,65.8c-8.1,3.1-14.8,8.9-19.2,16
		c0.3,0-12.3,39.6-14.5,126.9c-1.3,87.4,9.6,113.5,9.2,113.6c5.9,19.2,16.9,38.7,32.7,58.6c17.7,22.2,41.5,45.1,70.3,67.6
		c47.7,37.4,92.3,59.8,94.2,60.6c4.1,2,8.3,3,12.8,3c4.4,0,8.7-1,12.8-3c1.9-0.8,46.6-23.2,94.2-60.6c28.8-22.5,52.7-45.5,70.3-67.6
		c16.9-21.3,28.4-42.1,33.9-62.6C467.7,318.1,475.7,286,474.5,212.5L474.5,212.5z M280.4,269.8v46.6c0,13.1-10.6,23.8-23.8,23.8
		c-13.1,0-23.8-10.6-23.8-23.8v-45.9c-17.1-8.5-28.9-26.2-28.9-46.6c0-28.7,23.3-52,52-52s52,23.3,52,52
		C308,243.8,296.8,261.1,280.4,269.8z"/>
</g>
</svg>
